:SAMPLES-PER-SECOND 30
:FULLY-SPECIFIED
:DEGREES
170
root  -3.46933 34.1135 -9.73003 11.1048 -42.4964 0.60013
RightUpLeg  -24.6442 -9.94581 -0.0817228
RightLeg  24.1698 -5.37814 -2.00935
RightFoot  0.212718 0.00477145 0.260349
RightToes  -19.2097 -0.0802873 -0.170438
Spine  2.3944 2.61525 -0.857146
Spine1  4.54325 5.81353 -1.3858
HEad  -46.545 -8.99962 -5.36365
LeftShoulder1  -1.94126e-019 -3.10601e-018 -2.51263e-017
LeftArm  -6.48345 17.7225 -80.7177
LeftForeArm  26.3517 -26.1577 -4.30553
LeftHand  -0.489484 -1.11947 8.87544
RightShoulder  -4.96962e-017 0 -2.36833e-017
RightArm  -5.79122 5.0936 83.2267
RightForeArm  23.6835 58.1674 16.0619
RightHand  1.00836 -17.7443 -9.96865
LeftUpLeg  -27.8322 -2.54843 1.8943
LeftLeg  21.388 14.5813 4.59226
LeftFoot  7.8487 -0.153275 2.3956
LeftToes  -18.3582 1.34695e-006 1.12385e-007
171
root  -3.39708 33.9048 -9.86625 10.8086 -42.8383 0.765599
RightUpLeg  -26.3566 -10.6782 -0.0113505
RightLeg  27.2858 -4.26161 -1.8663
RightFoot  -1.20746 -0.00268932 0.384906
RightToes  -19.0625 -0.0801069 -0.16769
Spine  2.81135 2.91461 -1.24688
Spine1  5.302 6.47162 -2.20593
HEad  -45.3191 -9.14433 -5.39476
LeftShoulder1  -1.94126e-019 -3.10601e-018 -2.51263e-017
LeftArm  -4.72362 16.1957 -80.1036
LeftForeArm  27.4533 -26.0507 -4.26355
LeftHand  -0.464672 -1.58229 7.90799
RightShoulder  -4.96962e-017 0 -2.36833e-017
RightArm  -4.67042 5.27608 82.8368
RightForeArm  24.3075 55.8296 14.4622
RightHand  1.00877 -16.5084 -11.0141
LeftUpLeg  -29.4329 -1.99309 1.74604
LeftLeg  24.5545 14.1064 5.30609
LeftFoot  6.60187 -0.108137 2.03631
LeftToes  -18.1325 1.34695e-006 1.12385e-007
172
root  -3.2907 33.6831 -10.0497 11.0514 -42.8631 0.449573
RightUpLeg  -28.0197 -12.1575 0.626967
RightLeg  29.6472 -2.8391 -1.3909
RightFoot  -2.25875 -0.00369007 0.409002
RightToes  -18.8475 -0.0802801 -0.165363
Spine  3.46531 3.33602 -1.42082
Spine1  6.57642 7.33375 -2.55222
HEad  -46.4618 -9.94846 -5.14398
LeftShoulder1  -1.94126e-019 -3.10601e-018 -2.51263e-017
LeftArm  -4.47654 13.8852 -80.2071
LeftForeArm  28.7747 -25.2289 -4.04071
LeftHand  -0.465527 -2.01602 7.49002
RightShoulder  -4.96962e-017 0 -2.36833e-017
RightArm  -1.77958 5.48907 82.6593
RightForeArm  29.0438 47.0591 9.83989
RightHand  0.761563 -11.2335 -15.6067
LeftUpLeg  -31.3725 -1.28045 1.91058
LeftLeg  27.5846 13.2594 5.80024
LeftFoot  5.52264 -0.0734704 1.68476
LeftToes  -18.0889 1.34695e-006 1.12385e-007
173
root  -3.18277 33.5126 -10.2674 12.3505 -42.4576 -0.335399
RightUpLeg  -29.8204 -13.3935 1.78694
RightLeg  30.8603 -2.01259 -1.04369
RightFoot  -2.84039 -0.00275419 0.39596
RightToes  -18.7776 -0.080739 -0.163473
Spine  3.87545 3.66161 -1.3174
Spine1  7.41609 7.99563 -2.33325
HEad  -47.3564 -10.6552 -5.44947
LeftShoulder1  -1.94126e-019 -3.10601e-018 -2.51263e-017
LeftArm  -5.87243 11.9251 -80.9361
LeftForeArm  28.5089 -24.0119 -3.83795
LeftHand  -0.490785 -1.78321 8.12435
RightShoulder  -4.96962e-017 0 -2.36833e-017
RightArm  0.149756 8.30119 84.1681
RightForeArm  35.6263 33.0025 5.18664
RightHand  0.942812 -9.90718 -24.1563
LeftUpLeg  -33.7178 -0.657543 2.43154
LeftLeg  29.7071 12.2969 5.9326
LeftFoot  4.76618 -0.0523164 1.41861
LeftToes  -17.8866 1.34695e-006 1.12385e-007
174
root  -3.07481 33.3817 -10.4393 13.3255 -41.7277 -0.453457
RightUpLeg  -31.8116 -14.1903 2.35349
RightLeg  32.4139 -1.85921 -1.03144
RightFoot  -3.41769 -0.00666971 0.45284
RightToes  -18.7565 -0.0814157 -0.162035
Spine  4.10947 4.19511 -1.33332
Spine1  7.80643 9.35142 -2.57495
HEad  -46.4388 -11.7969 -5.51525
LeftShoulder1  -1.94126e-019 -3.10601e-018 -2.51263e-017
LeftArm  -8.32521 10.7751 -81.5866
LeftForeArm  28.4794 -23.9099 -3.84531
LeftHand  -0.500147 -1.46959 8.62979
RightShoulder  -4.96962e-017 0 -2.36833e-017
RightArm  0.867714 9.51618 84.4284
RightForeArm  34.4329 26.5533 3.79305
RightHand  1.23809 -10.5001 -27.6789
LeftUpLeg  -35.7131 -0.61792 2.51133
LeftLeg  30.9266 11.5577 5.88552
LeftFoot  4.45457 -0.0468512 1.33198
LeftToes  -17.8317 1.34695e-006 1.12385e-007
175
root  -2.99257 33.3272 -10.5699 13.5685 -40.7258 -0.441066
RightUpLeg  -32.7364 -14.7974 2.56574
RightLeg  33.4144 -2.09476 -1.20966
RightFoot  -3.58656 -0.0040483 0.44905
RightToes  -18.548 -0.0822423 -0.161065
Spine  4.31389 4.21767 -1.45585
Spine1  8.25707 9.182 -2.63243
HEad  -44.7122 -13.5362 -4.83021
LeftShoulder1  -1.94126e-019 -3.10601e-018 -2.51263e-017
LeftArm  -8.72171 10.5085 -81.4207
LeftForeArm  26.5266 -24.4481 -3.96794
LeftHand  -0.494622 -0.990138 9.1384
RightShoulder  -4.96962e-017 0 -2.36833e-017
RightArm  0.963005 7.19146 83.0411
RightForeArm  32.0204 32.0786 5.15752
RightHand  1.24211 -10.4264 -28.1375
LeftUpLeg  -36.6147 -1.26592 2.6425
LeftLeg  31.339 11.2141 5.81462
LeftFoot  4.65349 -0.0476152 1.31302
LeftToes  -17.7809 1.34695e-006 1.12385e-007
176
root  -2.91585 33.2626 -10.6755 13.7932 -38.9335 -0.329505
RightUpLeg  -33.4927 -15.6576 2.69713
RightLeg  34.2866 -2.81065 -1.67605
RightFoot  -3.94579 -0.00184795 0.527407
RightToes  -18.3946 -0.0831512 -0.160579
Spine  4.57486 3.85949 -1.5273
Spine1  8.74626 8.45807 -2.82033
HEad  -42.4798 -14.1395 -4.64656
LeftShoulder1  -1.94126e-019 -3.10601e-018 -2.51263e-017
LeftArm  -8.86435 10.6032 -80.881
LeftForeArm  25.0476 -25.0933 -4.08972
LeftHand  -0.484627 -0.835575 9.166
RightShoulder  -4.96962e-017 0 -2.36833e-017
RightArm  0.233097 3.124 80.8104
RightForeArm  32.2604 45.9208 9.16288
RightHand  1.20833 -10.3194 -27.9843
LeftUpLeg  -37.6328 -2.47634 2.77146
LeftLeg  31.627 10.6631 5.6013
LeftFoot  5.07718 -0.0527118 1.35044
LeftToes  -18.2584 1.34695e-006 1.12385e-007
177
root  -2.84722 33.2243 -10.7787 13.8678 -37.2316 -0.188467
RightUpLeg  -33.8441 -16.1678 2.70197
RightLeg  34.7066 -3.78692 -2.28968
RightFoot  -4.18637 0.00227525 0.65022
RightToes  -18.3357 -0.0840743 -0.160594
Spine  4.9525 3.37217 -1.47286
Spine1  9.43313 7.60988 -2.91643
HEad  -40.7341 -13.3842 -5.57799
LeftShoulder1  -1.94126e-019 -3.10601e-018 -2.51263e-017
LeftArm  -8.83568 10.4809 -80.4052
LeftForeArm  24.7905 -24.8591 -4.02143
LeftHand  -0.485005 -0.934048 9.03819
RightShoulder  -4.96962e-017 0 -2.36833e-017
RightArm  -3.26029 0.0528282 79.2873
RightForeArm  36.5593 60.895 16.6784
RightHand  1.02887 -10.2452 -24.4781
LeftUpLeg  -38.2052 -2.89893 2.60137
LeftLeg  31.379 9.58856 4.9926
LeftFoot  5.36312 -0.0537088 1.30825
LeftToes  -18.3922 1.34695e-006 1.12385e-007
178
root  -2.78383 33.2249 -10.8807 14.0639 -36.2427 -0.191506
RightUpLeg  -34.0128 -15.9487 2.71502
RightLeg  34.6274 -5.0038 -3.00786
RightFoot  -4.11772 0.00619616 0.770476
RightToes  -18.7571 -0.0849439 -0.161124
Spine  5.26553 3.07279 -1.43523
Spine1  9.98775 7.14552 -3.05274
HEad  -40.3396 -12.2534 -6.30721
LeftShoulder1  -1.94126e-019 -3.10601e-018 -2.51263e-017
LeftArm  -8.95542 10.462 -79.9585
LeftForeArm  25.428 -24.4182 -3.89346
LeftHand  -0.482063 -1.03477 8.85142
RightShoulder  -4.96962e-017 0 -2.36833e-017
RightArm  -8.36132 -0.535099 79.5571
RightForeArm  44.4371 70.4732 27.3174
RightHand  0.78159 -10.1022 -19.5494
LeftUpLeg  -38.5388 -2.61681 2.39537
LeftLeg  30.8536 8.57192 4.37046
LeftFoot  5.68337 -0.0545054 1.26385
LeftToes  -18.6298 1.34695e-006 1.12385e-007
179
root  -2.74557 33.2564 -10.937 14.2924 -35.9182 -0.255551
RightUpLeg  -34.0429 -15.7551 2.79988
RightLeg  34.1906 -5.2837 -3.11954
RightFoot  -3.92909 0.00620621 0.782928
RightToes  -18.199 -0.0856921 -0.162187
Spine  5.25169 2.92062 -1.50335
Spine1  9.89745 6.93133 -3.31106
HEad  -39.8539 -11.3896 -6.56416
LeftShoulder1  -1.94126e-019 -3.10601e-018 -2.51263e-017
LeftArm  -8.8158 10.9458 -79.4752
LeftForeArm  25.62 -23.3026 -3.69767
LeftHand  -0.487878 -0.862371 9.18933
RightShoulder  -4.96962e-017 0 -2.36833e-017
RightArm  -11.499 1.46962 80.9875
RightForeArm  43.1865 70.8981 28.4045
RightHand  0.851498 -10.9377 -18.1526
LeftUpLeg  -38.5707 -2.51211 2.38044
LeftLeg  30.2083 8.28042 4.10725
LeftFoot  5.97776 -0.0586066 1.28396
LeftToes  -18.8709 1.34695e-006 1.12385e-007
180
root  -2.7383 33.3219 -10.9466 14.5811 -36.1186 -0.450363
RightUpLeg  -33.8516 -15.8773 3.04326
RightLeg  33.3381 -5.01692 -2.86313
RightFoot  -3.49513 0.00323437 0.709162
RightToes  -18.6367 -0.0862511 -0.165772
Spine  5.03835 2.92533 -1.59521
Spine1  9.46609 6.92466 -3.45405
HEad  -39.8996 -11.3436 -6.38382
LeftShoulder1  -1.94126e-019 -3.10601e-018 -2.51263e-017
LeftArm  -8.86929 11.3277 -79.2333
LeftForeArm  25.6058 -21.4849 -3.45523
LeftHand  -0.484879 -0.892223 9.09263
RightShoulder  -4.96962e-017 0 -2.36833e-017
RightArm  -10.9013 5.20273 81.947
RightForeArm  33.1748 62.4213 18.3507
RightHand  1.14533 -12.8772 -17.997
LeftUpLeg  -38.3131 -2.7494 2.68412
LeftLeg  29.4539 8.75877 4.20047
LeftFoot  6.2443 -0.0654947 1.3777
LeftToes  -19.3648 1.34695e-006 1.12385e-007
181
root  -2.74029 33.4266 -10.8945 14.7842 -36.6566 -0.688318
RightUpLeg  -33.2743 -16.3013 3.30112
RightLeg  31.9833 -4.18652 -2.26248
RightFoot  -2.84853 -0.000837546 0.568389
RightToes  -19.4105 -0.086553 -0.172065
Spine  4.76411 3.12892 -1.66302
Spine1  8.97464 7.21566 -3.41605
HEad  -40.8551 -11.9749 -6.02656
LeftShoulder1  -1.94126e-019 -3.10601e-018 -2.51263e-017
LeftArm  -9.34222 11.3578 -79.3441
LeftForeArm  26.3366 -19.5377 -3.22462
LeftHand  -0.463825 -0.87827 8.72132
RightShoulder  -4.96962e-017 0 -2.36833e-017
RightArm  -8.65231 10.9051 82.9932
RightForeArm  27.1671 42.834 8.43978
RightHand  0.735614 -10.2445 -17.9866
LeftUpLeg  -37.5979 -2.81467 2.93474
LeftLeg  28.327 9.42845 4.29391
LeftFoot  6.56683 -0.0726495 1.49061
LeftToes  -20.0683 1.34695e-006 1.12385e-007
182
root  -2.75526 33.47 -10.779 14.9491 -36.7597 -0.609892
RightUpLeg  -33.0743 -16.8481 3.26824
RightLeg  31.4089 -3.68387 -1.94504
RightFoot  -2.78032 0.000311128 0.622691
RightToes  -20.8995 -0.0865298 -0.184015
Spine  4.64941 4.22177 -1.55468
Spine1  8.53268 10.0778 -3.73219
HEad  -42.7462 -13.2717 -5.52571
LeftShoulder1  -1.94126e-019 -3.10601e-018 -2.51263e-017
LeftArm  -9.73011 10.6414 -79.9206
LeftForeArm  27.5895 -19.0057 -3.23568
LeftHand  -0.449837 -1.03066 8.27333
RightShoulder  -4.96962e-017 0 -2.36833e-017
RightArm  -8.02164 15.2514 83.2662
RightForeArm  28.7222 23.7534 3.50726
RightHand  0.229219 -6.69536 -21.2047
LeftUpLeg  -37.3111 -2.56063 2.68899
LeftLeg  27.7776 9.35317 4.15308
LeftFoot  6.30538 -0.0750961 1.52488
LeftToes  -20.5553 1.34695e-006 1.12385e-007
183
root  -2.77389 33.5916 -10.6384 14.8431 -36.9483 -0.567047
RightUpLeg  -32.0835 -17.3234 3.15485
RightLeg  29.9128 -3.19657 -1.58316
RightFoot  -2.2812 -0.00172802 0.525056
RightToes  -21.6382 -0.0856624 -0.189862
Spine  4.45019 4.91299 -1.47422
Spine1  8.27424 11.2188 -3.26344
HEad  -45.9568 -15.7501 -4.58582
LeftShoulder1  -1.94126e-019 -3.10601e-018 -2.51263e-017
LeftArm  -8.55339 10.3899 -80.3298
LeftForeArm  28.2068 -19.6703 -3.38804
LeftHand  -0.446146 -1.2205 7.98592
RightShoulder  -4.96962e-017 0 -2.36833e-017
RightArm  -6.9172 13.0434 81.7322
RightForeArm  27.1988 23.3686 3.50833
RightHand  0.563984 -8.06337 -24.5304
LeftUpLeg  -36.2438 -2.20082 2.42795
LeftLeg  26.3592 9.31799 3.86656
LeftFoot  6.39468 -0.074071 1.48745
LeftToes  -21.2991 1.34695e-006 1.12385e-007
184
root  -2.80365 33.7661 -10.4553 14.7043 -36.406 -0.400763
RightUpLeg  -30.6509 -18.0253 2.90982
RightLeg  27.7762 -3.16771 -1.42282
RightFoot  -1.50138 -0.0032248 0.371175
RightToes  -21.9518 -0.0839328 -0.192549
Spine  3.91698 4.66986 -1.60627
Spine1  7.45633 10.0154 -2.85675
HEad  -49.3329 -17.5757 -2.70941
LeftShoulder1  -1.94126e-019 -3.10601e-018 -2.51263e-017
LeftArm  -7.9182 12.1342 -79.8803
LeftForeArm  27.7405 -21.9775 -3.67925
LeftHand  -0.447308 -1.1848 8.04696
RightShoulder  -4.96962e-017 0 -2.36833e-017
RightArm  -6.82338 6.4477 80.8164
RightForeArm  26.2922 34.6471 6.12998
RightHand  0.664235 -8.4484 -25.147
LeftUpLeg  -34.7887 -2.56761 2.19484
LeftLeg  23.9857 9.35971 3.43997
LeftFoot  7.09537 -0.0825725 1.49334
LeftToes  -22.6155 1.34695e-006 1.12385e-007
